<?xml version="1.0" standalone="no"?><?xml-stylesheet type="text/css" href="https://wps.processon.com/themes/default/wps/mind/icons/icons.css" ?><!DOCTYPE svg PUBLIC "-//W3C//DTD SVG 1.1//EN" "http://www.w3.org/Graphics/SVG/1.1/DTD/svg11.dtd"><svg id="SvgjsSvg1006" width="1580.9510965239888" height="621.3333129882812" xmlns="http://www.w3.org/2000/svg" version="1.1" xmlns:xlink="http://www.w3.org/1999/xlink" xmlns:svgjs="http://svgjs.com/svgjs"><defs id="SvgjsDefs1007"><pattern patternUnits="userSpaceOnUse" id="pattern_mark_0" width="300" height="300"><text x="150" y="100" fill="rgba(229,229,229,0.8)" font-size="18" transform="rotate(-45, 150, 150)" style="dominant-baseline: middle; text-anchor: middle;"></text></pattern><pattern patternUnits="userSpaceOnUse" id="pattern_mark_1" width="300" height="300"><text x="150" y="200" fill="rgba(229,229,229,0.8)" font-size="18" transform="rotate(-45, 150, 150)" style="dominant-baseline: middle; text-anchor: middle;"></text></pattern><pattern patternUnits="userSpaceOnUse" id="wpspattern_mark_0" width="300" height="300"><text x="150" y="100" fill="#0000004d" font-size="18" transform="rotate(-45, 150, 150)" style="dominant-baseline: middle; text-anchor: middle;"></text></pattern></defs><rect id="svgbackgroundid" width="1580.9510965239888" height="621.3333129882812" fill="rgb(255,255,255)"></rect><rect id="SvgjsRect1009" width="1580.9510965239888" height="621.3333129882812" fill="url(#pattern_mark_0)"></rect><rect id="SvgjsRect1010" width="1580.9510965239888" height="621.3333129882812" fill="url(#pattern_mark_1)"></rect><g id="SvgjsG1011" transform="translate(25,25)"><path id="SvgjsPath1012" d="M 0 4Q 0 0 4 0L 301 0Q 305 0 305 4L 305 567.333Q 305 571.333 301 571.333L 4 571.333Q 0 571.333 0 567.333Z" stroke="none" fill-opacity="1" fill="#cce5ff"></path><g id="SvgjsG1013"><text id="SvgjsText1014" font-family="&quot;Microsoft YaHei&quot;, 微软雅黑, Arial" text-anchor="middle" font-size="13px" width="295px" fill="#323232" font-weight="400" align="middle" lineHeight="125%" anchor="middle" family="&quot;Microsoft YaHei&quot;, 微软雅黑, Arial" size="13px" weight="400" font-style="" opacity="1" y="31.1845" transform="rotate(0)"></text></g></g><g id="SvgjsG1015" transform="translate(330,25)"><path id="SvgjsPath1016" d="M 0 4Q 0 0 4 0L 301.976 0Q 305.976 0 305.976 4L 305.976 567.333Q 305.976 571.333 301.976 571.333L 4 571.333Q 0 571.333 0 567.333Z" stroke="none" fill-opacity="1" fill="#e9f4f5"></path><g id="SvgjsG1017"><text id="SvgjsText1018" font-family="&quot;Microsoft YaHei&quot;, 微软雅黑, Arial" text-anchor="middle" font-size="13px" width="296px" fill="#323232" font-weight="400" align="middle" lineHeight="125%" anchor="middle" family="&quot;Microsoft YaHei&quot;, 微软雅黑, Arial" size="13px" weight="400" font-style="" opacity="1" y="31.1845" transform="rotate(0)"></text></g></g><g id="SvgjsG1019" transform="translate(637,25)"><path id="SvgjsPath1020" d="M 0 4Q 0 0 4 0L 301.976 0Q 305.976 0 305.976 4L 305.976 567.333Q 305.976 571.333 301.976 571.333L 4 571.333Q 0 571.333 0 567.333Z" stroke="none" fill-opacity="1" fill="#cce5ff"></path><g id="SvgjsG1021"><text id="SvgjsText1022" font-family="&quot;Microsoft YaHei&quot;, 微软雅黑, Arial" text-anchor="middle" font-size="13px" width="296px" fill="#323232" font-weight="400" align="middle" lineHeight="125%" anchor="middle" family="&quot;Microsoft YaHei&quot;, 微软雅黑, Arial" size="13px" weight="400" font-style="" opacity="1" y="31.1845" transform="rotate(0)"></text></g></g><g id="SvgjsG1023" transform="translate(25.97554826199439,25.666656494140625)"><path id="SvgjsPath1024" d="M 0 0L 918.024 0L 918.024 54L 0 54Z" stroke="none" fill-opacity="1" fill="#9db0f5"></path><g id="SvgjsG1025"><text id="SvgjsText1026" font-family="&quot;Microsoft YaHei&quot;, 微软雅黑, Arial" text-anchor="middle" font-size="13px" width="899px" fill="#323232" font-weight="400" align="middle" lineHeight="125%" anchor="middle" family="&quot;Microsoft YaHei&quot;, 微软雅黑, Arial" size="13px" weight="400" font-style="" opacity="1" y="16.375" transform="rotate(0)"><tspan id="SvgjsTspan1027" dy="16.25" x="459.5"><tspan id="SvgjsTspan1028" style="">CI</tspan></tspan></text></g></g><g id="SvgjsG1029" transform="translate(117.97554826199439,81.33331298828125)"><path id="SvgjsPath1030" d="M 0 0L 100 0L 100 40L 0 40Z" stroke="none" fill="none"></path><g id="SvgjsG1031"><text id="SvgjsText1032" font-family="&quot;Microsoft YaHei&quot;, 微软雅黑, Arial" text-anchor="middle" font-size="13px" width="100px" fill="#323232" font-weight="400" align="middle" lineHeight="125%" anchor="middle" family="&quot;Microsoft YaHei&quot;, 微软雅黑, Arial" size="13px" weight="400" font-style="" opacity="1" y="9.375" transform="rotate(0)"><tspan id="SvgjsTspan1033" dy="16.25" x="50"><tspan id="SvgjsTspan1034" style="">需求阶段</tspan></tspan></text></g></g><g id="SvgjsG1035" transform="translate(433.5,77.33331298828125)"><path id="SvgjsPath1036" d="M 0 0L 100 0L 100 40L 0 40Z" stroke="none" fill="none"></path><g id="SvgjsG1037"><text id="SvgjsText1038" font-family="&quot;Microsoft YaHei&quot;, 微软雅黑, Arial" text-anchor="middle" font-size="13px" width="100px" fill="#323232" font-weight="400" align="middle" lineHeight="125%" anchor="middle" family="&quot;Microsoft YaHei&quot;, 微软雅黑, Arial" size="13px" weight="400" font-style="" opacity="1" y="9.375" transform="rotate(0)"><tspan id="SvgjsTspan1039" dy="16.25" x="50"><tspan id="SvgjsTspan1040" style="">开发阶段</tspan></tspan></text></g></g><g id="SvgjsG1041" transform="translate(732.9755482619944,81.33331298828125)"><path id="SvgjsPath1042" d="M 0 0L 100 0L 100 40L 0 40Z" stroke="none" fill="none"></path><g id="SvgjsG1043"><text id="SvgjsText1044" font-family="&quot;Microsoft YaHei&quot;, 微软雅黑, Arial" text-anchor="middle" font-size="13px" width="100px" fill="#323232" font-weight="400" align="middle" lineHeight="125%" anchor="middle" family="&quot;Microsoft YaHei&quot;, 微软雅黑, Arial" size="13px" weight="400" font-style="" opacity="1" y="9.375" transform="rotate(0)"><tspan id="SvgjsTspan1045" dy="16.25" x="50"><tspan id="SvgjsTspan1046" style="">测试阶段</tspan></tspan></text></g></g><g id="SvgjsG1047" transform="translate(944,25)"><path id="SvgjsPath1048" d="M 0 4Q 0 0 4 0L 301.976 0Q 305.976 0 305.976 4L 305.976 567.333Q 305.976 571.333 301.976 571.333L 4 571.333Q 0 571.333 0 567.333Z" stroke="none" fill-opacity="1" fill="#e9f4f5"></path><g id="SvgjsG1049"><text id="SvgjsText1050" font-family="&quot;Microsoft YaHei&quot;, 微软雅黑, Arial" text-anchor="middle" font-size="13px" width="296px" fill="#323232" font-weight="400" align="middle" lineHeight="125%" anchor="middle" family="&quot;Microsoft YaHei&quot;, 微软雅黑, Arial" size="13px" weight="400" font-style="" opacity="1" y="31.1845" transform="rotate(0)"></text></g></g><g id="SvgjsG1051" transform="translate(1249.9755482619944,25)"><path id="SvgjsPath1052" d="M 0 4Q 0 0 4 0L 301.976 0Q 305.976 0 305.976 4L 305.976 567.333Q 305.976 571.333 301.976 571.333L 4 571.333Q 0 571.333 0 567.333Z" stroke="none" fill-opacity="1" fill="#cce5ff"></path><g id="SvgjsG1053"><text id="SvgjsText1054" font-family="&quot;Microsoft YaHei&quot;, 微软雅黑, Arial" text-anchor="middle" font-size="13px" width="296px" fill="#323232" font-weight="400" align="middle" lineHeight="125%" anchor="middle" family="&quot;Microsoft YaHei&quot;, 微软雅黑, Arial" size="13px" weight="400" font-style="" opacity="1" y="31.1845" transform="rotate(0)"></text></g></g><g id="SvgjsG1055" transform="translate(1046.4755482619944,86.33331298828125)"><path id="SvgjsPath1056" d="M 0 0L 100 0L 100 40L 0 40Z" stroke="none" fill="none"></path><g id="SvgjsG1057"><text id="SvgjsText1058" font-family="&quot;Microsoft YaHei&quot;, 微软雅黑, Arial" text-anchor="middle" font-size="13px" width="100px" fill="#323232" font-weight="400" align="middle" lineHeight="125%" anchor="middle" family="&quot;Microsoft YaHei&quot;, 微软雅黑, Arial" size="13px" weight="400" font-style="" opacity="1" y="9.375" transform="rotate(0)"><tspan id="SvgjsTspan1059" dy="16.25" x="50"><tspan id="SvgjsTspan1060" style="">发布阶段</tspan></tspan></text></g></g><g id="SvgjsG1061" transform="translate(1347.9755482619944,86.33331298828125)"><path id="SvgjsPath1062" d="M 0 0L 100 0L 100 40L 0 40Z" stroke="none" fill="none"></path><g id="SvgjsG1063"><text id="SvgjsText1064" font-family="&quot;Microsoft YaHei&quot;, 微软雅黑, Arial" text-anchor="middle" font-size="13px" width="100px" fill="#323232" font-weight="400" align="middle" lineHeight="125%" anchor="middle" family="&quot;Microsoft YaHei&quot;, 微软雅黑, Arial" size="13px" weight="400" font-style="" opacity="1" y="9.375" transform="rotate(0)"><tspan id="SvgjsTspan1065" dy="16.25" x="50"><tspan id="SvgjsTspan1066" style="">运营阶段</tspan></tspan></text></g></g><g id="SvgjsG1067" transform="translate(944,25)"><path id="SvgjsPath1068" d="M 0 0L 304.951 0L 304.951 54L 0 54Z" stroke="none" fill-opacity="1" fill="#f6e471"></path><g id="SvgjsG1069"><text id="SvgjsText1070" font-family="&quot;Microsoft YaHei&quot;, 微软雅黑, Arial" text-anchor="middle" font-size="13px" width="285px" fill="#323232" font-weight="400" align="middle" lineHeight="125%" anchor="middle" family="&quot;Microsoft YaHei&quot;, 微软雅黑, Arial" size="13px" weight="400" font-style="" opacity="1" y="16.375" transform="rotate(0)"><tspan id="SvgjsTspan1071" dy="16.25" x="152.5"><tspan id="SvgjsTspan1072" style="">CD</tspan></tspan></text></g></g><g id="SvgjsG1073" transform="translate(1251,25)"><path id="SvgjsPath1074" d="M 0 0L 304.951 0L 304.951 54L 0 54Z" stroke="none" fill-opacity="1" fill="#7bd144"></path><g id="SvgjsG1075"><text id="SvgjsText1076" font-family="&quot;Microsoft YaHei&quot;, 微软雅黑, Arial" text-anchor="middle" font-size="13px" width="285px" fill="#323232" font-weight="400" align="middle" lineHeight="125%" anchor="middle" family="&quot;Microsoft YaHei&quot;, 微软雅黑, Arial" size="13px" weight="400" font-style="" opacity="1" y="16.375" transform="rotate(0)"><tspan id="SvgjsTspan1077" dy="16.25" x="152.5"><tspan id="SvgjsTspan1078" style="">CO</tspan></tspan></text></g></g><g id="SvgjsG1079" transform="translate(58.97554826199439,139.33331298828125)"><path id="SvgjsPath1080" d="M 0 0L 233 0L 233 299L 0 299Z" stroke-dasharray="1.5,2.25" stroke="rgba(33,41,48,1)" stroke-width="1.5" fill-opacity="1" fill="#ffffff"></path><g id="SvgjsG1081"><text id="SvgjsText1082" font-family="&quot;Microsoft YaHei&quot;, 微软雅黑, Arial" text-anchor="middle" font-size="13px" width="213px" fill="#323232" font-weight="400" align="middle" lineHeight="125%" anchor="middle" family="&quot;Microsoft YaHei&quot;, 微软雅黑, Arial" size="13px" weight="400" font-style="" opacity="1" y="122.375" transform="rotate(0)"><tspan id="SvgjsTspan1083" dy="16.25" x="116.5"><tspan id="SvgjsTspan1084" style="">团队协同</tspan></tspan><tspan id="SvgjsTspan1085" dy="16.25" x="116.5"><tspan id="SvgjsTspan1086" style="">TeamWork</tspan></tspan><tspan id="SvgjsTspan1087" dy="16.25" x="116.5"><tspan id="SvgjsTspan1088" style="">CMMI?/敏捷?/IPD?</tspan></tspan></text></g></g><g id="SvgjsG1089" transform="translate(375.9755482619944,139.33331298828125)"><path id="SvgjsPath1090" d="M 0 4Q 0 0 4 0L 148 0Q 152 0 152 4L 152 32Q 152 36 148 36L 4 36Q 0 36 0 32Z" stroke-dasharray="1.5,2.25" stroke="rgba(33,41,48,1)" stroke-width="1.5" fill-opacity="1" fill="#ffffff"></path><g id="SvgjsG1091"><text id="SvgjsText1092" font-family="&quot;Microsoft YaHei&quot;, 微软雅黑, Arial" text-anchor="start" font-size="13px" width="132px" fill="#323232" font-weight="400" align="middle" lineHeight="125%" anchor="start" family="&quot;Microsoft YaHei&quot;, 微软雅黑, Arial" size="13px" weight="400" font-style="" opacity="1" y="7.375" transform="rotate(0)"><tspan id="SvgjsTspan1093" dy="16.25" x="10"><tspan id="SvgjsTspan1094" style="">代码管理 Coderepo</tspan></tspan></text></g></g><g id="SvgjsG1095" transform="translate(375.9755482619944,240.33331298828125)"><path id="SvgjsPath1096" d="M 0 0L 860.024 0L 860.024 45L 0 45Z" stroke-dasharray="1.5,2.25" stroke="rgba(33,41,48,1)" stroke-width="1.5" fill-opacity="1" fill="#ffffff"></path><g id="SvgjsG1097"><text id="SvgjsText1098" font-family="&quot;Microsoft YaHei&quot;, 微软雅黑, Arial" text-anchor="middle" font-size="13px" width="841px" fill="#323232" font-weight="400" align="middle" lineHeight="125%" anchor="middle" family="&quot;Microsoft YaHei&quot;, 微软雅黑, Arial" size="13px" weight="400" font-style="" opacity="1" y="11.875" transform="rotate(0)"><tspan id="SvgjsTspan1099" dy="16.25" x="430.5"><tspan id="SvgjsTspan1100" style="">流水线 Pipeline</tspan></tspan></text></g></g><g id="SvgjsG1101" transform="translate(375.9755482619944,305.33331298828125)"><path id="SvgjsPath1102" d="M 0 4Q 0 0 4 0L 156 0Q 160 0 160 4L 160 29Q 160 33 156 33L 4 33Q 0 33 0 29Z" stroke-dasharray="1.5,2.25" stroke="rgba(33,41,48,1)" stroke-width="1.5" fill-opacity="1" fill="#ffffff"></path><g id="SvgjsG1103"><text id="SvgjsText1104" font-family="&quot;Microsoft YaHei&quot;, 微软雅黑, Arial" text-anchor="middle" font-size="13px" width="140px" fill="#323232" font-weight="400" align="middle" lineHeight="125%" anchor="middle" family="&quot;Microsoft YaHei&quot;, 微软雅黑, Arial" size="13px" weight="400" font-style="" opacity="1" y="5.875" transform="rotate(0)"><tspan id="SvgjsTspan1105" dy="16.25" x="80"><tspan id="SvgjsTspan1106" style="">代码检查 CodeCheck</tspan></tspan></text></g></g><g id="SvgjsG1107" transform="translate(375.9755482619944,358.33331298828125)"><path id="SvgjsPath1108" d="M 0 4Q 0 0 4 0L 156 0Q 160 0 160 4L 160 28Q 160 32 156 32L 4 32Q 0 32 0 28Z" stroke-dasharray="1.5,2.25" stroke="rgba(33,41,48,1)" stroke-width="1.5" fill-opacity="1" fill="#ffffff"></path><g id="SvgjsG1109"><text id="SvgjsText1110" font-family="&quot;Microsoft YaHei&quot;, 微软雅黑, Arial" text-anchor="middle" font-size="13px" width="140px" fill="#323232" font-weight="400" align="middle" lineHeight="125%" anchor="middle" family="&quot;Microsoft YaHei&quot;, 微软雅黑, Arial" size="13px" weight="400" font-style="" opacity="1" y="5.375" transform="rotate(0)"><tspan id="SvgjsTspan1111" dy="16.25" x="80"><tspan id="SvgjsTspan1112" style="">制品仓库 Artifactory</tspan></tspan></text></g></g><g id="SvgjsG1113" transform="translate(375.9755482619944,399.33331298828125)"><path id="SvgjsPath1114" d="M 0 0L 860.024 0L 860.024 39L 0 39Z" stroke-dasharray="1.5,2.25" stroke="rgba(33,41,48,1)" stroke-width="1.5" fill-opacity="1" fill="#ffffff"></path><g id="SvgjsG1115"><text id="SvgjsText1116" font-family="&quot;Microsoft YaHei&quot;, 微软雅黑, Arial" text-anchor="middle" font-size="13px" width="841px" fill="#323232" font-weight="400" align="middle" lineHeight="125%" anchor="middle" family="&quot;Microsoft YaHei&quot;, 微软雅黑, Arial" size="13px" weight="400" font-style="" opacity="1" y="8.875" transform="rotate(0)"><tspan id="SvgjsTspan1117" dy="16.25" x="430.5"><tspan id="SvgjsTspan1118" style="">配置管理</tspan></tspan></text></g></g><g id="SvgjsG1119" transform="translate(58.97554826199439,463.33331298828125)"><path id="SvgjsPath1120" d="M 0 0L 1472 0L 1472 44L 0 44Z" stroke-dasharray="1.5,2.25" stroke="rgba(33,41,48,1)" stroke-width="1.5" fill-opacity="1" fill="#ffffff"></path><g id="SvgjsG1121"><text id="SvgjsText1122" font-family="&quot;Microsoft YaHei&quot;, 微软雅黑, Arial" text-anchor="middle" font-size="13px" width="1452px" fill="#323232" font-weight="400" align="middle" lineHeight="125%" anchor="middle" family="&quot;Microsoft YaHei&quot;, 微软雅黑, Arial" size="13px" weight="400" font-style="" opacity="1" y="11.375" transform="rotate(0)"><tspan id="SvgjsTspan1123" dy="16.25" x="736"><tspan id="SvgjsTspan1124" style="">质量度量 Measured</tspan></tspan></text></g></g><g id="SvgjsG1125" transform="translate(58.97554826199439,532.3333129882812)"><path id="SvgjsPath1126" d="M 0 0L 1472 0L 1472 44L 0 44Z" stroke-dasharray="1.5,2.25" stroke="rgba(33,41,48,1)" stroke-width="1.5" fill-opacity="1" fill="#ffffff"></path><g id="SvgjsG1127"><text id="SvgjsText1128" font-family="&quot;Microsoft YaHei&quot;, 微软雅黑, Arial" text-anchor="middle" font-size="13px" width="1452px" fill="#323232" font-weight="400" align="middle" lineHeight="125%" anchor="middle" family="&quot;Microsoft YaHei&quot;, 微软雅黑, Arial" size="13px" weight="400" font-style="" opacity="1" y="11.375" transform="rotate(0)"><tspan id="SvgjsTspan1129" dy="16.25" x="736"><tspan id="SvgjsTspan1130" style="">权限中心 Measured</tspan></tspan></text></g></g><g id="SvgjsG1131" transform="translate(674,139.33331298828125)"><path id="SvgjsPath1132" d="M 0 4Q 0 0 4 0L 118 0Q 122 0 122 4L 122 32Q 122 36 118 36L 4 36Q 0 36 0 32Z" stroke-dasharray="1.5,2.25" stroke="rgba(33,41,48,1)" stroke-width="1.5" fill-opacity="1" fill="#ffffff"></path><g id="SvgjsG1133"><text id="SvgjsText1134" font-family="&quot;Microsoft YaHei&quot;, 微软雅黑, Arial" text-anchor="middle" font-size="13px" width="102px" fill="#323232" font-weight="400" align="middle" lineHeight="125%" anchor="middle" family="&quot;Microsoft YaHei&quot;, 微软雅黑, Arial" size="13px" weight="400" font-style="" opacity="1" y="7.375" transform="rotate(0)"><tspan id="SvgjsTspan1135" dy="16.25" x="61"><tspan id="SvgjsTspan1136" style="">质量红线 Quality</tspan></tspan></text></g></g><g id="SvgjsG1137" transform="translate(375.9755482619944,184.33331298828125)"><path id="SvgjsPath1138" d="M 0 4Q 0 0 4 0L 148 0Q 152 0 152 4L 152 32Q 152 36 148 36L 4 36Q 0 36 0 32Z" stroke-dasharray="1.5,2.25" stroke="rgba(33,41,48,1)" stroke-width="1.5" fill-opacity="1" fill="#ffffff"></path><g id="SvgjsG1139"><text id="SvgjsText1140" font-family="&quot;Microsoft YaHei&quot;, 微软雅黑, Arial" text-anchor="start" font-size="13px" width="132px" fill="#323232" font-weight="400" align="middle" lineHeight="125%" anchor="start" family="&quot;Microsoft YaHei&quot;, 微软雅黑, Arial" size="13px" weight="400" font-style="" opacity="1" y="7.375" transform="rotate(0)"><tspan id="SvgjsTspan1141" dy="16.25" x="10"><tspan id="SvgjsTspan1142" style="">构建系统 BuildSystem</tspan></tspan></text></g></g><g id="SvgjsG1143" transform="translate(674,189.83331298828125)"><path id="SvgjsPath1144" d="M 0 4Q 0 0 4 0L 179.976 0Q 183.976 0 183.976 4L 183.976 32Q 183.976 36 179.976 36L 4 36Q 0 36 0 32Z" stroke-dasharray="1.5,2.25" stroke="rgba(33,41,48,1)" stroke-width="1.5" fill-opacity="1" fill="#ffffff"></path><g id="SvgjsG1145"><text id="SvgjsText1146" font-family="&quot;Microsoft YaHei&quot;, 微软雅黑, Arial" text-anchor="start" font-size="13px" width="164px" fill="#323232" font-weight="400" align="middle" lineHeight="125%" anchor="start" family="&quot;Microsoft YaHei&quot;, 微软雅黑, Arial" size="13px" weight="400" font-style="" opacity="1" y="7.375" transform="rotate(0)"><tspan id="SvgjsTspan1147" dy="16.25" x="10"><tspan id="SvgjsTspan1148" style="">自动测试框架 autotest</tspan></tspan></text></g></g><g id="SvgjsG1149" transform="translate(674,347.33331298828125)"><path id="SvgjsPath1150" d="M 0 4Q 0 0 4 0L 173.976 0Q 177.976 0 177.976 4L 177.976 32Q 177.976 36 173.976 36L 4 36Q 0 36 0 32Z" stroke-dasharray="1.5,2.25" stroke="rgba(33,41,48,1)" stroke-width="1.5" fill-opacity="1" fill="#ffffff"></path><g id="SvgjsG1151"><text id="SvgjsText1152" font-family="&quot;Microsoft YaHei&quot;, 微软雅黑, Arial" text-anchor="start" font-size="13px" width="158px" fill="#323232" font-weight="400" align="middle" lineHeight="125%" anchor="start" family="&quot;Microsoft YaHei&quot;, 微软雅黑, Arial" size="13px" weight="400" font-style="" opacity="1" y="7.375" transform="rotate(0)"><tspan id="SvgjsTspan1153" dy="16.25" x="10"><tspan id="SvgjsTspan1154" style="">体验版本 Experience</tspan></tspan></text></g></g><g id="SvgjsG1155" transform="translate(674,295.33331298828125)"><path id="SvgjsPath1156" d="M 0 4Q 0 0 4 0L 179.976 0Q 183.976 0 183.976 4L 183.976 32Q 183.976 36 179.976 36L 4 36Q 0 36 0 32Z" stroke-dasharray="1.5,2.25" stroke="rgba(33,41,48,1)" stroke-width="1.5" fill-opacity="1" fill="#ffffff"></path><g id="SvgjsG1157"><text id="SvgjsText1158" font-family="&quot;Microsoft YaHei&quot;, 微软雅黑, Arial" text-anchor="start" font-size="13px" width="164px" fill="#323232" font-weight="400" align="middle" lineHeight="125%" anchor="start" family="&quot;Microsoft YaHei&quot;, 微软雅黑, Arial" size="13px" weight="400" font-style="" opacity="1" y="7.375" transform="rotate(0)"><tspan id="SvgjsTspan1159" dy="16.25" x="10"><tspan id="SvgjsTspan1160" style="">测试管理 TestManage</tspan></tspan></text></g></g><g id="SvgjsG1161" transform="translate(967,139.33331298828125)"><path id="SvgjsPath1162" d="M 0 4Q 0 0 4 0L 183.976 0Q 187.976 0 187.976 4L 187.976 32Q 187.976 36 183.976 36L 4 36Q 0 36 0 32Z" stroke-dasharray="1.5,2.25" stroke="rgba(33,41,48,1)" stroke-width="1.5" fill-opacity="1" fill="#ffffff"></path><g id="SvgjsG1163"><text id="SvgjsText1164" font-family="&quot;Microsoft YaHei&quot;, 微软雅黑, Arial" text-anchor="start" font-size="13px" width="168px" fill="#323232" font-weight="400" align="middle" lineHeight="125%" anchor="start" family="&quot;Microsoft YaHei&quot;, 微软雅黑, Arial" size="13px" weight="400" font-style="" opacity="1" y="7.375" transform="rotate(0)"><tspan id="SvgjsTspan1165" dy="16.25" x="10"><tspan id="SvgjsTspan1166" style="">环境管理 EnvManagement</tspan></tspan></text></g></g><g id="SvgjsG1167" transform="translate(967,189.83331298828125)"><path id="SvgjsPath1168" d="M 0 4Q 0 0 4 0L 118 0Q 122 0 122 4L 122 32Q 122 36 118 36L 4 36Q 0 36 0 32Z" stroke-dasharray="1.5,2.25" stroke="rgba(33,41,48,1)" stroke-width="1.5" fill-opacity="1" fill="#ffffff"></path><g id="SvgjsG1169"><text id="SvgjsText1170" font-family="&quot;Microsoft YaHei&quot;, 微软雅黑, Arial" text-anchor="start" font-size="13px" width="102px" fill="#323232" font-weight="400" align="middle" lineHeight="125%" anchor="start" family="&quot;Microsoft YaHei&quot;, 微软雅黑, Arial" size="13px" weight="400" font-style="" opacity="1" y="7.375" transform="rotate(0)"><tspan id="SvgjsTspan1171" dy="16.25" x="10"><tspan id="SvgjsTspan1172" style="">作业平台 Job</tspan></tspan></text></g></g><g id="SvgjsG1173"></g><rect id="SvgjsRect1174" width="1580.9510965239888" height="621.3333129882812" fill="url(#wpspattern_mark_0)"></rect></svg>