<?xml version="1.0" standalone="no"?><?xml-stylesheet type="text/css" href="https://wps.processon.com/themes/default/wps/mind/icons/icons.css" ?><!DOCTYPE svg PUBLIC "-//W3C//DTD SVG 1.1//EN" "http://www.w3.org/Graphics/SVG/1.1/DTD/svg11.dtd"><svg id="SvgjsSvg1180" width="355.9755482619944" height="621.3333129882812" xmlns="http://www.w3.org/2000/svg" version="1.1" xmlns:xlink="http://www.w3.org/1999/xlink" xmlns:svgjs="http://svgjs.com/svgjs"><defs id="SvgjsDefs1181"><pattern patternUnits="userSpaceOnUse" id="pattern_mark_0" width="300" height="300"><text x="150" y="100" fill="rgba(229,229,229,0.8)" font-size="18" transform="rotate(-45, 150, 150)" style="dominant-baseline: middle; text-anchor: middle;"></text></pattern><pattern patternUnits="userSpaceOnUse" id="pattern_mark_1" width="300" height="300"><text x="150" y="200" fill="rgba(229,229,229,0.8)" font-size="18" transform="rotate(-45, 150, 150)" style="dominant-baseline: middle; text-anchor: middle;"></text></pattern><pattern patternUnits="userSpaceOnUse" id="wpspattern_mark_0" width="300" height="300"><text x="150" y="100" fill="#0000004d" font-size="18" transform="rotate(-45, 150, 150)" style="dominant-baseline: middle; text-anchor: middle;"></text></pattern></defs><rect id="svgbackgroundid" width="355.9755482619944" height="621.3333129882812" fill="rgb(255,255,255)"></rect><rect id="SvgjsRect1183" width="355.9755482619944" height="621.3333129882812" fill="url(#pattern_mark_0)"></rect><rect id="SvgjsRect1184" width="355.9755482619944" height="621.3333129882812" fill="url(#pattern_mark_1)"></rect><g id="SvgjsG1185" transform="translate(25,25)"><path id="SvgjsPath1186" d="M 0 4Q 0 0 4 0L 301.976 0Q 305.976 0 305.976 4L 305.976 567.333Q 305.976 571.333 301.976 571.333L 4 571.333Q 0 571.333 0 567.333Z" stroke="none" fill-opacity="1" fill="#e9f4f5"></path><g id="SvgjsG1187"><text id="SvgjsText1188" font-family="&quot;Microsoft YaHei&quot;, еЊЃиљѓйЫЕйїС, Arial" text-anchor="middle" font-size="13px" width="296px" fill="#323232" font-weight="400" align="middle" lineHeight="125%" anchor="middle" family="&quot;Microsoft YaHei&quot;, еЊЃиљѓйЫЕйїС, Arial" size="13px" weight="400" font-style="" opacity="1" y="31.1845" transform="rotate(0)"></text></g></g><g id="SvgjsG1189"></g><rect id="SvgjsRect1190" width="355.9755482619944" height="621.3333129882812" fill="url(#wpspattern_mark_0)"></rect></svg>