<?xml version="1.0" standalone="no"?><?xml-stylesheet type="text/css" href="https://wps.processon.com/themes/default/wps/mind/icons/icons.css" ?><!DOCTYPE svg PUBLIC "-//W3C//DTD SVG 1.1//EN" "http://www.w3.org/Graphics/SVG/1.1/DTD/svg11.dtd"><svg id="SvgjsSvg1191" width="1580.9510965239888" height="621.3333129882812" xmlns="http://www.w3.org/2000/svg" version="1.1" xmlns:xlink="http://www.w3.org/1999/xlink" xmlns:svgjs="http://svgjs.com/svgjs"><defs id="SvgjsDefs1192"><pattern patternUnits="userSpaceOnUse" id="pattern_mark_0" width="300" height="300"><text x="150" y="100" fill="rgba(229,229,229,0.8)" font-size="18" transform="rotate(-45, 150, 150)" style="dominant-baseline: middle; text-anchor: middle;"></text></pattern><pattern patternUnits="userSpaceOnUse" id="pattern_mark_1" width="300" height="300"><text x="150" y="200" fill="rgba(229,229,229,0.8)" font-size="18" transform="rotate(-45, 150, 150)" style="dominant-baseline: middle; text-anchor: middle;"></text></pattern><pattern patternUnits="userSpaceOnUse" id="wpspattern_mark_0" width="300" height="300"><text x="150" y="100" fill="#0000004d" font-size="18" transform="rotate(-45, 150, 150)" style="dominant-baseline: middle; text-anchor: middle;"></text></pattern></defs><rect id="svgbackgroundid" width="1580.9510965239888" height="621.3333129882812" fill="rgb(255,255,255)"></rect><rect id="SvgjsRect1194" width="1580.9510965239888" height="621.3333129882812" fill="url(#pattern_mark_0)"></rect><rect id="SvgjsRect1195" width="1580.9510965239888" height="621.3333129882812" fill="url(#pattern_mark_1)"></rect><g id="SvgjsG1196" transform="translate(25,25)"><path id="SvgjsPath1197" d="M 0 4Q 0 0 4 0L 301 0Q 305 0 305 4L 305 567.333Q 305 571.333 301 571.333L 4 571.333Q 0 571.333 0 567.333Z" stroke="none" fill-opacity="1" fill="#cce5ff"></path><g id="SvgjsG1198"><text id="SvgjsText1199" font-family="&quot;Microsoft YaHei&quot;, 微软雅黑, Arial" text-anchor="middle" font-size="13px" width="295px" fill="#323232" font-weight="400" align="middle" lineHeight="125%" anchor="middle" family="&quot;Microsoft YaHei&quot;, 微软雅黑, Arial" size="13px" weight="400" font-style="" opacity="1" y="31.1845" transform="rotate(0)"></text></g></g><g id="SvgjsG1200" transform="translate(330,25)"><path id="SvgjsPath1201" d="M 0 4Q 0 0 4 0L 301.976 0Q 305.976 0 305.976 4L 305.976 567.333Q 305.976 571.333 301.976 571.333L 4 571.333Q 0 571.333 0 567.333Z" stroke="none" fill-opacity="1" fill="#e9f4f5"></path><g id="SvgjsG1202"><text id="SvgjsText1203" font-family="&quot;Microsoft YaHei&quot;, 微软雅黑, Arial" text-anchor="middle" font-size="13px" width="296px" fill="#323232" font-weight="400" align="middle" lineHeight="125%" anchor="middle" family="&quot;Microsoft YaHei&quot;, 微软雅黑, Arial" size="13px" weight="400" font-style="" opacity="1" y="31.1845" transform="rotate(0)"></text></g></g><g id="SvgjsG1204" transform="translate(637,25)"><path id="SvgjsPath1205" d="M 0 4Q 0 0 4 0L 301.976 0Q 305.976 0 305.976 4L 305.976 567.333Q 305.976 571.333 301.976 571.333L 4 571.333Q 0 571.333 0 567.333Z" stroke="none" fill-opacity="1" fill="#cce5ff"></path><g id="SvgjsG1206"><text id="SvgjsText1207" font-family="&quot;Microsoft YaHei&quot;, 微软雅黑, Arial" text-anchor="middle" font-size="13px" width="296px" fill="#323232" font-weight="400" align="middle" lineHeight="125%" anchor="middle" family="&quot;Microsoft YaHei&quot;, 微软雅黑, Arial" size="13px" weight="400" font-style="" opacity="1" y="31.1845" transform="rotate(0)"></text></g></g><g id="SvgjsG1208" transform="translate(25.97554826199439,25.666656494140625)"><path id="SvgjsPath1209" d="M 0 0L 918.024 0L 918.024 54L 0 54Z" stroke="none" fill-opacity="1" fill="#9db0f5"></path><g id="SvgjsG1210"><text id="SvgjsText1211" font-family="&quot;Microsoft YaHei&quot;, 微软雅黑, Arial" text-anchor="middle" font-size="13px" width="899px" fill="#323232" font-weight="400" align="middle" lineHeight="125%" anchor="middle" family="&quot;Microsoft YaHei&quot;, 微软雅黑, Arial" size="13px" weight="400" font-style="" opacity="1" y="16.375" transform="rotate(0)"><tspan id="SvgjsTspan1212" dy="16.25" x="459.5"><tspan id="SvgjsTspan1213" style="">CI</tspan></tspan></text></g></g><g id="SvgjsG1214" transform="translate(117.97554826199439,81.33331298828125)"><path id="SvgjsPath1215" d="M 0 0L 100 0L 100 40L 0 40Z" stroke="none" fill="none"></path><g id="SvgjsG1216"><text id="SvgjsText1217" font-family="&quot;Microsoft YaHei&quot;, 微软雅黑, Arial" text-anchor="middle" font-size="13px" width="100px" fill="#323232" font-weight="400" align="middle" lineHeight="125%" anchor="middle" family="&quot;Microsoft YaHei&quot;, 微软雅黑, Arial" size="13px" weight="400" font-style="" opacity="1" y="9.375" transform="rotate(0)"><tspan id="SvgjsTspan1218" dy="16.25" x="50"><tspan id="SvgjsTspan1219" style="">需求阶段</tspan></tspan></text></g></g><g id="SvgjsG1220" transform="translate(433.5,77.33331298828125)"><path id="SvgjsPath1221" d="M 0 0L 100 0L 100 40L 0 40Z" stroke="none" fill="none"></path><g id="SvgjsG1222"><text id="SvgjsText1223" font-family="&quot;Microsoft YaHei&quot;, 微软雅黑, Arial" text-anchor="middle" font-size="13px" width="100px" fill="#323232" font-weight="400" align="middle" lineHeight="125%" anchor="middle" family="&quot;Microsoft YaHei&quot;, 微软雅黑, Arial" size="13px" weight="400" font-style="" opacity="1" y="9.375" transform="rotate(0)"><tspan id="SvgjsTspan1224" dy="16.25" x="50"><tspan id="SvgjsTspan1225" style="">开发阶段</tspan></tspan></text></g></g><g id="SvgjsG1226" transform="translate(732.9755482619944,81.33331298828125)"><path id="SvgjsPath1227" d="M 0 0L 100 0L 100 40L 0 40Z" stroke="none" fill="none"></path><g id="SvgjsG1228"><text id="SvgjsText1229" font-family="&quot;Microsoft YaHei&quot;, 微软雅黑, Arial" text-anchor="middle" font-size="13px" width="100px" fill="#323232" font-weight="400" align="middle" lineHeight="125%" anchor="middle" family="&quot;Microsoft YaHei&quot;, 微软雅黑, Arial" size="13px" weight="400" font-style="" opacity="1" y="9.375" transform="rotate(0)"><tspan id="SvgjsTspan1230" dy="16.25" x="50"><tspan id="SvgjsTspan1231" style="">测试阶段</tspan></tspan></text></g></g><g id="SvgjsG1232" transform="translate(944,25)"><path id="SvgjsPath1233" d="M 0 4Q 0 0 4 0L 301.976 0Q 305.976 0 305.976 4L 305.976 567.333Q 305.976 571.333 301.976 571.333L 4 571.333Q 0 571.333 0 567.333Z" stroke="none" fill-opacity="1" fill="#e9f4f5"></path><g id="SvgjsG1234"><text id="SvgjsText1235" font-family="&quot;Microsoft YaHei&quot;, 微软雅黑, Arial" text-anchor="middle" font-size="13px" width="296px" fill="#323232" font-weight="400" align="middle" lineHeight="125%" anchor="middle" family="&quot;Microsoft YaHei&quot;, 微软雅黑, Arial" size="13px" weight="400" font-style="" opacity="1" y="31.1845" transform="rotate(0)"></text></g></g><g id="SvgjsG1236" transform="translate(1249.9755482619944,25)"><path id="SvgjsPath1237" d="M 0 4Q 0 0 4 0L 301.976 0Q 305.976 0 305.976 4L 305.976 567.333Q 305.976 571.333 301.976 571.333L 4 571.333Q 0 571.333 0 567.333Z" stroke="none" fill-opacity="1" fill="#cce5ff"></path><g id="SvgjsG1238"><text id="SvgjsText1239" font-family="&quot;Microsoft YaHei&quot;, 微软雅黑, Arial" text-anchor="middle" font-size="13px" width="296px" fill="#323232" font-weight="400" align="middle" lineHeight="125%" anchor="middle" family="&quot;Microsoft YaHei&quot;, 微软雅黑, Arial" size="13px" weight="400" font-style="" opacity="1" y="31.1845" transform="rotate(0)"></text></g></g><g id="SvgjsG1240" transform="translate(1046.4755482619944,85.66665649414062)"><path id="SvgjsPath1241" d="M 0 0L 100 0L 100 40L 0 40Z" stroke="none" fill="none"></path><g id="SvgjsG1242"><line id="SvgjsLine1243" x1="24" y1="19.666666984558105" x2="76" y2="19.666666984558105" stroke="#323232" stroke-width="1"></line><text id="SvgjsText1244" font-family="&quot;Microsoft YaHei&quot;, 微软雅黑, Arial" text-anchor="middle" font-size="13px" width="100px" fill="#323232" font-weight="400" align="middle" lineHeight="125%" anchor="middle" family="&quot;Microsoft YaHei&quot;, 微软雅黑, Arial" size="13px" weight="400" font-style="" opacity="1" y="9.375" transform="rotate(0)"><tspan id="SvgjsTspan1245" dy="16.25" x="50"><tspan id="SvgjsTspan1246" style="">发布阶段</tspan></tspan></text></g></g><g id="SvgjsG1247" transform="translate(1347.9755482619944,86.33331298828125)"><path id="SvgjsPath1248" d="M 0 0L 100 0L 100 40L 0 40Z" stroke="none" fill="none"></path><g id="SvgjsG1249"><line id="SvgjsLine1250" x1="24" y1="19.666666984558105" x2="76" y2="19.666666984558105" stroke="#323232" stroke-width="1"></line><text id="SvgjsText1251" font-family="&quot;Microsoft YaHei&quot;, 微软雅黑, Arial" text-anchor="middle" font-size="13px" width="100px" fill="#323232" font-weight="400" align="middle" lineHeight="125%" anchor="middle" family="&quot;Microsoft YaHei&quot;, 微软雅黑, Arial" size="13px" weight="400" font-style="" opacity="1" y="9.375" transform="rotate(0)"><tspan id="SvgjsTspan1252" dy="16.25" x="50"><tspan id="SvgjsTspan1253" style="">运营阶段</tspan></tspan></text></g></g><g id="SvgjsG1254" transform="translate(944,25)"><path id="SvgjsPath1255" d="M 0 0L 304.951 0L 304.951 54L 0 54Z" stroke="none" fill-opacity="1" fill="#f6e471"></path><g id="SvgjsG1256"><text id="SvgjsText1257" font-family="&quot;Microsoft YaHei&quot;, 微软雅黑, Arial" text-anchor="middle" font-size="13px" width="285px" fill="#323232" font-weight="400" align="middle" lineHeight="125%" anchor="middle" family="&quot;Microsoft YaHei&quot;, 微软雅黑, Arial" size="13px" weight="400" font-style="" opacity="1" y="16.375" transform="rotate(0)"><tspan id="SvgjsTspan1258" dy="16.25" x="152.5"><tspan id="SvgjsTspan1259" style="">CD</tspan></tspan></text></g></g><g id="SvgjsG1260" transform="translate(1251,25)"><path id="SvgjsPath1261" d="M 0 0L 304.951 0L 304.951 54L 0 54Z" stroke="none" fill-opacity="1" fill="#7bd144"></path><g id="SvgjsG1262"><text id="SvgjsText1263" font-family="&quot;Microsoft YaHei&quot;, 微软雅黑, Arial" text-anchor="middle" font-size="13px" width="285px" fill="#323232" font-weight="400" align="middle" lineHeight="125%" anchor="middle" family="&quot;Microsoft YaHei&quot;, 微软雅黑, Arial" size="13px" weight="400" font-style="" opacity="1" y="16.375" transform="rotate(0)"><tspan id="SvgjsTspan1264" dy="16.25" x="152.5"><tspan id="SvgjsTspan1265" style="">CO</tspan></tspan></text></g></g><g id="SvgjsG1266" transform="translate(58.97554826199439,139.33331298828125)"><path id="SvgjsPath1267" d="M 0 0L 233 0L 233 299L 0 299Z" stroke-dasharray="1.5,2.25" stroke="rgba(33,41,48,1)" stroke-width="1.5" fill-opacity="1" fill="#e5f6da"></path><g id="SvgjsG1268"><text id="SvgjsText1269" font-family="&quot;Microsoft YaHei&quot;, 微软雅黑, Arial" text-anchor="middle" font-size="13px" width="213px" fill="#323232" font-weight="400" align="middle" lineHeight="125%" anchor="middle" family="&quot;Microsoft YaHei&quot;, 微软雅黑, Arial" size="13px" weight="400" font-style="" opacity="1" y="122.375" transform="rotate(0)"><tspan id="SvgjsTspan1270" dy="16.25" x="116.5"><tspan id="SvgjsTspan1271" style="">团队协同</tspan></tspan><tspan id="SvgjsTspan1272" dy="16.25" x="116.5"><tspan id="SvgjsTspan1273" style="">TeamWork</tspan></tspan><tspan id="SvgjsTspan1274" dy="16.25" x="116.5"><tspan id="SvgjsTspan1275" style="">CMMI?/敏捷?/IPD?</tspan></tspan></text></g></g><g id="SvgjsG1276" transform="translate(375.9755482619944,139.33331298828125)"><path id="SvgjsPath1277" d="M 0 4Q 0 0 4 0L 148 0Q 152 0 152 4L 152 32Q 152 36 148 36L 4 36Q 0 36 0 32Z" stroke-dasharray="1.5,2.25" stroke="rgba(33,41,48,1)" stroke-width="1.5" fill-opacity="1" fill="#7bd144"></path><g id="SvgjsG1278"><text id="SvgjsText1279" font-family="&quot;Microsoft YaHei&quot;, 微软雅黑, Arial" text-anchor="start" font-size="13px" width="132px" fill="#323232" font-weight="400" align="middle" lineHeight="125%" anchor="start" family="&quot;Microsoft YaHei&quot;, 微软雅黑, Arial" size="13px" weight="400" font-style="" opacity="1" y="7.375" transform="rotate(0)"><tspan id="SvgjsTspan1280" dy="16.25" x="10"><tspan id="SvgjsTspan1281" style="">代码管理 Coderepo</tspan></tspan></text></g></g><g id="SvgjsG1282" transform="translate(375.9755482619944,240.33331298828125)"><path id="SvgjsPath1283" d="M 0 0L 860.024 0L 860.024 45L 0 45Z" stroke-dasharray="1.5,2.25" stroke="rgba(33,41,48,1)" stroke-width="1.5" fill-opacity="1" fill="#caedb4"></path><g id="SvgjsG1284"><text id="SvgjsText1285" font-family="&quot;Microsoft YaHei&quot;, 微软雅黑, Arial" text-anchor="middle" font-size="13px" width="841px" fill="#323232" font-weight="400" align="middle" lineHeight="125%" anchor="middle" family="&quot;Microsoft YaHei&quot;, 微软雅黑, Arial" size="13px" weight="400" font-style="" opacity="1" y="11.875" transform="rotate(0)"><tspan id="SvgjsTspan1286" dy="16.25" x="430.5"><tspan id="SvgjsTspan1287" style="">流水线 Pipeline</tspan></tspan></text></g></g><g id="SvgjsG1288" transform="translate(375.9755482619944,305.33331298828125)"><path id="SvgjsPath1289" d="M 0 4Q 0 0 4 0L 156 0Q 160 0 160 4L 160 29Q 160 33 156 33L 4 33Q 0 33 0 29Z" stroke-dasharray="1.5,2.25" stroke="rgba(33,41,48,1)" stroke-width="1.5" fill-opacity="1" fill="#caedb4"></path><g id="SvgjsG1290"><text id="SvgjsText1291" font-family="&quot;Microsoft YaHei&quot;, 微软雅黑, Arial" text-anchor="middle" font-size="13px" width="140px" fill="#323232" font-weight="400" align="middle" lineHeight="125%" anchor="middle" family="&quot;Microsoft YaHei&quot;, 微软雅黑, Arial" size="13px" weight="400" font-style="" opacity="1" y="5.875" transform="rotate(0)"><tspan id="SvgjsTspan1292" dy="16.25" x="80"><tspan id="SvgjsTspan1293" style="">代码检查 CodeCheck</tspan></tspan></text></g></g><g id="SvgjsG1294" transform="translate(375.9755482619944,358.33331298828125)"><path id="SvgjsPath1295" d="M 0 4Q 0 0 4 0L 156 0Q 160 0 160 4L 160 28Q 160 32 156 32L 4 32Q 0 32 0 28Z" stroke-dasharray="1.5,2.25" stroke="rgba(33,41,48,1)" stroke-width="1.5" fill-opacity="1" fill="#e5f6da"></path><g id="SvgjsG1296"><text id="SvgjsText1297" font-family="&quot;Microsoft YaHei&quot;, 微软雅黑, Arial" text-anchor="middle" font-size="13px" width="140px" fill="#323232" font-weight="400" align="middle" lineHeight="125%" anchor="middle" family="&quot;Microsoft YaHei&quot;, 微软雅黑, Arial" size="13px" weight="400" font-style="" opacity="1" y="5.375" transform="rotate(0)"><tspan id="SvgjsTspan1298" dy="16.25" x="80"><tspan id="SvgjsTspan1299" style="">制品仓库 Artifactory</tspan></tspan></text></g></g><g id="SvgjsG1300" transform="translate(375.9755482619944,399.33331298828125)"><path id="SvgjsPath1301" d="M 0 0L 860.024 0L 860.024 39L 0 39Z" stroke-dasharray="1.5,2.25" stroke="rgba(33,41,48,1)" stroke-width="1.5" fill-opacity="1" fill="#e5f6da"></path><g id="SvgjsG1302"><text id="SvgjsText1303" font-family="&quot;Microsoft YaHei&quot;, 微软雅黑, Arial" text-anchor="middle" font-size="13px" width="841px" fill="#323232" font-weight="400" align="middle" lineHeight="125%" anchor="middle" family="&quot;Microsoft YaHei&quot;, 微软雅黑, Arial" size="13px" weight="400" font-style="" opacity="1" y="8.875" transform="rotate(0)"><tspan id="SvgjsTspan1304" dy="16.25" x="430.5"><tspan id="SvgjsTspan1305" style="">配置管理</tspan></tspan></text></g></g><g id="SvgjsG1306" transform="translate(58.97554826199439,463.33331298828125)"><path id="SvgjsPath1307" d="M 0 0L 1472 0L 1472 44L 0 44Z" stroke-dasharray="1.5,2.25" stroke="rgba(33,41,48,1)" stroke-width="1.5" fill-opacity="1" fill="#e5f6da"></path><g id="SvgjsG1308"><text id="SvgjsText1309" font-family="&quot;Microsoft YaHei&quot;, 微软雅黑, Arial" text-anchor="middle" font-size="13px" width="1452px" fill="#323232" font-weight="400" align="middle" lineHeight="125%" anchor="middle" family="&quot;Microsoft YaHei&quot;, 微软雅黑, Arial" size="13px" weight="400" font-style="" opacity="1" y="11.375" transform="rotate(0)"><tspan id="SvgjsTspan1310" dy="16.25" x="736"><tspan id="SvgjsTspan1311" style="">质量度量 Measured</tspan></tspan></text></g></g><g id="SvgjsG1312" transform="translate(58.97554826199439,532.3333129882812)"><path id="SvgjsPath1313" d="M 0 0L 1472 0L 1472 44L 0 44Z" stroke-dasharray="1.5,2.25" stroke="rgba(33,41,48,1)" stroke-width="1.5" fill-opacity="1" fill="#e5f6da"></path><g id="SvgjsG1314"><text id="SvgjsText1315" font-family="&quot;Microsoft YaHei&quot;, 微软雅黑, Arial" text-anchor="middle" font-size="13px" width="1452px" fill="#323232" font-weight="400" align="middle" lineHeight="125%" anchor="middle" family="&quot;Microsoft YaHei&quot;, 微软雅黑, Arial" size="13px" weight="400" font-style="" opacity="1" y="11.375" transform="rotate(0)"><tspan id="SvgjsTspan1316" dy="16.25" x="736"><tspan id="SvgjsTspan1317" style="">权限中心 Measured</tspan></tspan></text></g></g><g id="SvgjsG1318" transform="translate(674,139.33331298828125)"><path id="SvgjsPath1319" d="M 0 4Q 0 0 4 0L 118 0Q 122 0 122 4L 122 32Q 122 36 118 36L 4 36Q 0 36 0 32Z" stroke-dasharray="1.5,2.25" stroke="rgba(33,41,48,1)" stroke-width="1.5" fill-opacity="1" fill="#7f8b98"></path><g id="SvgjsG1320"><text id="SvgjsText1321" font-family="&quot;Microsoft YaHei&quot;, 微软雅黑, Arial" text-anchor="middle" font-size="13px" width="102px" fill="#323232" font-weight="400" align="middle" lineHeight="125%" anchor="middle" family="&quot;Microsoft YaHei&quot;, 微软雅黑, Arial" size="13px" weight="400" font-style="" opacity="1" y="7.375" transform="rotate(0)"><tspan id="SvgjsTspan1322" dy="16.25" x="61"><tspan id="SvgjsTspan1323" style="">质量红线 Quality</tspan></tspan></text></g></g><g id="SvgjsG1324" transform="translate(375.9755482619944,184.33331298828125)"><path id="SvgjsPath1325" d="M 0 4Q 0 0 4 0L 148 0Q 152 0 152 4L 152 32Q 152 36 148 36L 4 36Q 0 36 0 32Z" stroke-dasharray="1.5,2.25" stroke="rgba(33,41,48,1)" stroke-width="1.5" fill-opacity="1" fill="#caedb4"></path><g id="SvgjsG1326"><text id="SvgjsText1327" font-family="&quot;Microsoft YaHei&quot;, 微软雅黑, Arial" text-anchor="start" font-size="13px" width="132px" fill="#323232" font-weight="400" align="middle" lineHeight="125%" anchor="start" family="&quot;Microsoft YaHei&quot;, 微软雅黑, Arial" size="13px" weight="400" font-style="" opacity="1" y="7.375" transform="rotate(0)"><tspan id="SvgjsTspan1328" dy="16.25" x="10"><tspan id="SvgjsTspan1329" style="">构建系统 BuildSystem</tspan></tspan></text></g></g><g id="SvgjsG1330" transform="translate(674,189.83331298828125)"><path id="SvgjsPath1331" d="M 0 4Q 0 0 4 0L 179.976 0Q 183.976 0 183.976 4L 183.976 32Q 183.976 36 179.976 36L 4 36Q 0 36 0 32Z" stroke-dasharray="1.5,2.25" stroke="rgba(33,41,48,1)" stroke-width="1.5" fill-opacity="1" fill="#caedb4"></path><g id="SvgjsG1332"><text id="SvgjsText1333" font-family="&quot;Microsoft YaHei&quot;, 微软雅黑, Arial" text-anchor="start" font-size="13px" width="164px" fill="#323232" font-weight="400" align="middle" lineHeight="125%" anchor="start" family="&quot;Microsoft YaHei&quot;, 微软雅黑, Arial" size="13px" weight="400" font-style="" opacity="1" y="7.375" transform="rotate(0)"><tspan id="SvgjsTspan1334" dy="16.25" x="10"><tspan id="SvgjsTspan1335" style="">自动测试框架 autotest</tspan></tspan></text></g></g><g id="SvgjsG1336" transform="translate(674,347.33331298828125)"><path id="SvgjsPath1337" d="M 0 4Q 0 0 4 0L 173.976 0Q 177.976 0 177.976 4L 177.976 32Q 177.976 36 173.976 36L 4 36Q 0 36 0 32Z" stroke-dasharray="1.5,2.25" stroke="rgba(33,41,48,1)" stroke-width="1.5" fill-opacity="1" fill="#7f8b98"></path><g id="SvgjsG1338"><text id="SvgjsText1339" font-family="&quot;Microsoft YaHei&quot;, 微软雅黑, Arial" text-anchor="start" font-size="13px" width="158px" fill="#323232" font-weight="400" align="middle" lineHeight="125%" anchor="start" family="&quot;Microsoft YaHei&quot;, 微软雅黑, Arial" size="13px" weight="400" font-style="" opacity="1" y="7.375" transform="rotate(0)"><tspan id="SvgjsTspan1340" dy="16.25" x="10"><tspan id="SvgjsTspan1341" style="">体验版本 Experience</tspan></tspan></text></g></g><g id="SvgjsG1342" transform="translate(674,295.33331298828125)"><path id="SvgjsPath1343" d="M 0 4Q 0 0 4 0L 179.976 0Q 183.976 0 183.976 4L 183.976 32Q 183.976 36 179.976 36L 4 36Q 0 36 0 32Z" stroke-dasharray="1.5,2.25" stroke="rgba(33,41,48,1)" stroke-width="1.5" fill-opacity="1" fill="#caedb4"></path><g id="SvgjsG1344"><text id="SvgjsText1345" font-family="&quot;Microsoft YaHei&quot;, 微软雅黑, Arial" text-anchor="start" font-size="13px" width="164px" fill="#323232" font-weight="400" align="middle" lineHeight="125%" anchor="start" family="&quot;Microsoft YaHei&quot;, 微软雅黑, Arial" size="13px" weight="400" font-style="" opacity="1" y="7.375" transform="rotate(0)"><tspan id="SvgjsTspan1346" dy="16.25" x="10"><tspan id="SvgjsTspan1347" style="">测试管理 TestManage</tspan></tspan></text></g></g><g id="SvgjsG1348" transform="translate(967,138.66665649414062)"><path id="SvgjsPath1349" d="M 0 4Q 0 0 4 0L 183.976 0Q 187.976 0 187.976 4L 187.976 32Q 187.976 36 183.976 36L 4 36Q 0 36 0 32Z" stroke-dasharray="1.5,2.25" stroke="rgba(33,41,48,1)" stroke-width="1.5" fill-opacity="1" fill="#7f8b98"></path><g id="SvgjsG1350"><text id="SvgjsText1351" font-family="&quot;Microsoft YaHei&quot;, 微软雅黑, Arial" text-anchor="start" font-size="13px" width="168px" fill="#323232" font-weight="400" align="middle" lineHeight="125%" anchor="start" family="&quot;Microsoft YaHei&quot;, 微软雅黑, Arial" size="13px" weight="400" font-style="" opacity="1" y="7.375" transform="rotate(0)"><tspan id="SvgjsTspan1352" dy="16.25" x="10"><tspan id="SvgjsTspan1353" style="">环境管理 EnvManagement</tspan></tspan></text></g></g><g id="SvgjsG1354" transform="translate(967,189.83331298828125)"><path id="SvgjsPath1355" d="M 0 4Q 0 0 4 0L 118 0Q 122 0 122 4L 122 32Q 122 36 118 36L 4 36Q 0 36 0 32Z" stroke-dasharray="1.5,2.25" stroke="rgba(33,41,48,1)" stroke-width="1.5" fill-opacity="1" fill="#7f8b98"></path><g id="SvgjsG1356"><line id="SvgjsLine1357" x1="10" y1="17.666666984558105" x2="87.59375071525574" y2="17.666666984558105" stroke="#323232" stroke-width="1"></line><text id="SvgjsText1358" font-family="&quot;Microsoft YaHei&quot;, 微软雅黑, Arial" text-anchor="start" font-size="13px" width="102px" fill="#323232" font-weight="400" align="middle" lineHeight="125%" anchor="start" family="&quot;Microsoft YaHei&quot;, 微软雅黑, Arial" size="13px" weight="400" font-style="" opacity="1" y="7.375" transform="rotate(0)"><tspan id="SvgjsTspan1359" dy="16.25" x="10"><tspan id="SvgjsTspan1360" style="">作业平台 Job</tspan></tspan></text></g></g><g id="SvgjsG1361"></g><rect id="SvgjsRect1362" width="1580.9510965239888" height="621.3333129882812" fill="url(#wpspattern_mark_0)"></rect></svg>